<svg xmlns="http://www.w3.org/2000/svg" xmlns:xlink="http://www.w3.org/1999/xlink" width="192" zoomAndPan="magnify" viewBox="0 0 144 143.999998" height="192" preserveAspectRatio="xMidYMid meet" version="1.0"><path fill="#37424b" d="M 123.800781 24.941406 L 54.007812 24.941406 C 41.820312 24.117188 31.417969 33.914062 31.355469 45.8125 C 31.289062 57.800781 41.734375 67.742188 54.007812 66.917969 L 123.800781 66.917969 C 122.085938 64.757812 116.441406 57.109375 116.480469 45.8125 C 116.519531 34.660156 122.074219 27.113281 123.800781 24.941406 Z M 123.800781 24.941406 " fill-opacity="1" fill-rule="nonzero"/><path fill="#37424b" d="M 27.609375 125.074219 L 97.402344 125.074219 C 109.589844 125.894531 119.996094 116.136719 120.054688 104.277344 C 120.121094 92.328125 109.675781 82.421875 97.402344 83.246094 L 27.609375 83.246094 C 29.324219 85.394531 34.972656 93.019531 34.933594 104.277344 C 34.894531 115.390625 29.335938 122.910156 27.609375 125.074219 Z M 27.609375 125.074219 " fill-opacity="1" fill-rule="nonzero"/></svg>